<svg id="Group_118" data-name="Group 118" xmlns="http://www.w3.org/2000/svg" xmlns:xlink="http://www.w3.org/1999/xlink" width="936.421" height="333.493" viewBox="0 0 936.421 333.493">
  <defs>
    <clipPath id="clip-path">
      <rect id="Rectangle_98" data-name="Rectangle 98" width="525.064" height="109.641" fill="#fff"/>
    </clipPath>
  </defs>
  <path id="Path_317" data-name="Path 317" d="M320.423,194.135a17.61,17.61,0,0,1-12.149-4.8,16.026,16.026,0,0,1-5.031-11.593V109.27a5.9,5.9,0,0,0-1.848-4.261,6.477,6.477,0,0,0-4.461-1.772h-29.82V24.815a10.487,10.487,0,0,0-3.265-7.558,11.517,11.517,0,0,0-7.9-3.171l-17.608-.116a.256.256,0,0,0-.176.068.238.238,0,0,0-.054.076.214.214,0,0,0-.02.091v123.96h-53.1l-.052-69.9s-17.874-.059-19.1-.036a6.337,6.337,0,0,0-4.318,1.761,5.771,5.771,0,0,0-1.779,4.146V177.754a15.721,15.721,0,0,1-1.3,6.265,16.345,16.345,0,0,1-3.715,5.312,17.233,17.233,0,0,1-5.563,3.551,17.877,17.877,0,0,1-6.563,1.25H1.258a1.265,1.265,0,0,1-.851-.3,1.153,1.153,0,0,1-.4-.776,1.133,1.133,0,0,1,.266-.827,1.244,1.244,0,0,1,.789-.428l138.364-7.823a5.867,5.867,0,0,0,4.046-1.6,5.337,5.337,0,0,0,1.679-3.859V71.2a16.154,16.154,0,0,1,5.008-11.636A17.744,17.744,0,0,1,162.3,54.66c8.451-.083,37.146-.046,37.146-.046l.046,69.7h24.075V0H262.9a19.094,19.094,0,0,1,13.155,5.189,17.377,17.377,0,0,1,5.475,12.539c.018,5.936,0,71.7,0,71.7h21.741a14.8,14.8,0,0,1,10.211,4.036,13.469,13.469,0,0,1,4.229,9.744v75.442a5.328,5.328,0,0,0,1.666,3.859,5.856,5.856,0,0,0,4.038,1.605l609.91,6.955a1.621,1.621,0,0,1,1.038.572,1.467,1.467,0,0,1,.341,1.1,1.522,1.522,0,0,1-.548,1.021,1.653,1.653,0,0,1-1.134.376Z" transform="translate(0 0)" fill="#939598"/>
  <path id="Path_318" data-name="Path 318" d="M138.059,5.523,105.7,91.124h-.264l-32-85.6H45.07L94.152,126.677H117.24l48.9-121.158Zm98.357,32.94A43.774,43.774,0,0,0,220,41.5a36.275,36.275,0,0,0-13.138,8.936H206.5V5.987H182.13v120.7H206.5V82.712q0-11.452,5.636-17.4A20.093,20.093,0,0,1,219.26,60.7a20.882,20.882,0,0,1,8.5-1.329q9.089,0,13.409,4.771t4.318,16.309v46.307h24.454V74.547A51.281,51.281,0,0,0,267.5,57.761a25.5,25.5,0,0,0-6.494-10.746,27.211,27.211,0,0,0-11-6.6A43.581,43.581,0,0,0,236.416,38.463Zm97.536,89.7a54.36,54.36,0,0,0,24.989-5.595,41.687,41.687,0,0,0,17.182-15.832A44.232,44.232,0,0,0,382.3,83.4a45.81,45.81,0,0,0-3.591-18.261,41.017,41.017,0,0,0-9.954-14.227,45.493,45.493,0,0,0-15.36-9.15,59.36,59.36,0,0,0-39.184.08,44.66,44.66,0,0,0-15.361,9.326,41.565,41.565,0,0,0-9.774,14.27,45.881,45.881,0,0,0-3.5,17.944,46.839,46.839,0,0,0,2.218,14.58,40.318,40.318,0,0,0,6.5,12.379,44.764,44.764,0,0,0,23.542,15.669A58.077,58.077,0,0,0,333.952,128.165Zm0-20.817a23.116,23.116,0,0,1-9.312-1.67,22.2,22.2,0,0,1-7.732-5.227,25.43,25.43,0,0,1-.093-34.264A24.047,24.047,0,0,1,324.6,61.16a25.022,25.022,0,0,1,18.436-.042,22.1,22.1,0,0,1,12.985,13,23.048,23.048,0,0,1,1.554,9.293,22.8,22.8,0,0,1-1.6,9.247,23.639,23.639,0,0,1-5.219,7.939,22.451,22.451,0,0,1-7.652,5.077,23.343,23.343,0,0,1-9.155,1.667ZM509.913,38.47a43.858,43.858,0,0,0-17.957,3.6A36.566,36.566,0,0,0,478.275,52.43h-.267q-7.993-13.967-27-13.966A34.16,34.16,0,0,0,436.286,41.8a37.2,37.2,0,0,0-12.448,9.585h-.263V39.931H399.209v86.75h24.365V83.309a30.891,30.891,0,0,1,2.546-13.056,18.51,18.51,0,0,1,6.8-8.2,18.042,18.042,0,0,1,9.818-2.688q16.088,0,16.091,22.555v44.83H483.2V83.286a31.307,31.307,0,0,1,2.5-13.056,18.494,18.494,0,0,1,6.677-8.174,16.942,16.942,0,0,1,9.368-2.688q15.908,0,15.9,22.555v44.832h24.368V76.283q0-19.258-8.412-28.54t-23.678-9.28ZM647.426,82.538a46.1,46.1,0,0,0-5.551-22.682,39.653,39.653,0,0,0-15.726-15.7,47.135,47.135,0,0,0-23.36-5.682,48.416,48.416,0,0,0-17.913,3.292,41.024,41.024,0,0,0-23.723,23.375,46.97,46.97,0,0,0-3.446,18.087,45.242,45.242,0,0,0,6.136,23.595,41.143,41.143,0,0,0,16.771,15.831,51.221,51.221,0,0,0,23.9,5.508,56.109,56.109,0,0,0,23.093-4.468,43.768,43.768,0,0,0,16.178-11.927L627.972,97.716a26.508,26.508,0,0,1-9.642,7.364,27.781,27.781,0,0,1-12.08,2.438A25.192,25.192,0,0,1,591.4,103a21.8,21.8,0,0,1-8.323-12.144H646.8a35.308,35.308,0,0,0,.637-8.329ZM603.611,58.944a19.625,19.625,0,0,1,12.725,4.042,20.755,20.755,0,0,1,6.9,11.145H583.172a20.141,20.141,0,0,1,7.507-11.288,21.532,21.532,0,0,1,12.947-3.909Z" transform="translate(288.949 35.38)" fill="#9f224e"/>
  <path id="Path_319" data-name="Path 319" d="M6.918,61.622v18.1H.82V33.482H17.875q7.591,0,11.878,3.875a13.114,13.114,0,0,1,4.319,10.258q0,6.733-4.224,10.386-4.192,3.621-12.037,3.62Zm0-4.986H17.875q4.891,0,7.5-2.287a8.46,8.46,0,0,0,2.6-6.669,8.692,8.692,0,0,0-2.6-6.606A10.278,10.278,0,0,0,18.225,38.5H6.918Z" transform="translate(5.259 214.659)" fill="#9e9d9d"/>
  <path id="Path_320" data-name="Path 320" d="M6.665,52.5a20.433,20.433,0,0,1,1.969-9.083,14.955,14.955,0,0,1,5.526-6.225A15.126,15.126,0,0,1,22.259,35,14.445,14.445,0,0,1,33.6,39.859q4.351,4.859,4.351,12.926V53.2a20.434,20.434,0,0,1-1.937,9.02,14.475,14.475,0,0,1-5.495,6.193,15.14,15.14,0,0,1-8.194,2.223,14.5,14.5,0,0,1-11.338-4.859q-4.319-4.86-4.319-12.863Zm5.907.7q0,5.717,2.636,9.179a8.53,8.53,0,0,0,7.114,3.462,8.448,8.448,0,0,0,7.114-3.494q2.636-3.525,2.636-9.846a14.547,14.547,0,0,0-2.7-9.147,8.477,8.477,0,0,0-7.114-3.525,8.437,8.437,0,0,0-7.019,3.462Q12.572,46.752,12.572,53.2Z" transform="translate(42.73 224.385)" fill="#9e9d9d"/>
  <path id="Path_321" data-name="Path 321" d="M45.673,61.35l6.606-26.265h5.876l-10,34.364H43.387L35.034,43.406,26.9,69.449H22.139L12.167,35.085h5.844l6.765,25.725,8-25.725h4.733Z" transform="translate(78.003 224.935)" fill="#9e9d9d"/>
  <path id="Path_322" data-name="Path 322" d="M35.436,70.634a15.04,15.04,0,0,1-11.37-4.573q-4.383-4.6-4.383-12.291V52.69a20.659,20.659,0,0,1,1.937-9.115,15.25,15.25,0,0,1,5.463-6.288A13.743,13.743,0,0,1,34.705,35q6.7,0,10.417,4.415t3.716,12.64V54.5H25.558a12.322,12.322,0,0,0,2.954,8.226,9.406,9.406,0,0,0,7.241,3.112,10.231,10.231,0,0,0,5.272-1.27A13.252,13.252,0,0,0,44.8,61.2L48.394,64Q44.074,70.635,35.436,70.634Zm-.731-30.807a7.818,7.818,0,0,0-5.971,2.6,12.5,12.5,0,0,0-2.985,7.241H42.963v-.445A11.115,11.115,0,0,0,40.549,42.3,7.357,7.357,0,0,0,34.705,39.827Z" transform="translate(126.189 224.385)" fill="#9e9d9d"/>
  <path id="Path_323" data-name="Path 323" d="M41.851,40.907a17.608,17.608,0,0,0-2.89-.222q-5.781,0-7.845,4.923V70H25.241V35.635h5.716l.1,3.969A9.15,9.15,0,0,1,39.246,35a6.005,6.005,0,0,1,2.6.445Z" transform="translate(161.819 224.385)" fill="#9e9d9d"/>
  <path id="Path_324" data-name="Path 324" d="M44.383,70.634a15.04,15.04,0,0,1-11.37-4.573q-4.383-4.6-4.383-12.291V52.69a20.659,20.659,0,0,1,1.937-9.115,15.25,15.25,0,0,1,5.463-6.288A13.743,13.743,0,0,1,43.652,35q6.7,0,10.417,4.415t3.716,12.64V54.5H34.505a12.325,12.325,0,0,0,2.953,8.226A9.409,9.409,0,0,0,44.7,65.838a10.233,10.233,0,0,0,5.272-1.27,13.252,13.252,0,0,0,3.78-3.366L57.34,64Q53.021,70.635,44.383,70.634Zm-.731-30.807a7.818,7.818,0,0,0-5.971,2.6A12.5,12.5,0,0,0,34.7,49.673H51.909v-.445A11.115,11.115,0,0,0,49.5,42.3,7.357,7.357,0,0,0,43.652,39.827Z" transform="translate(183.547 224.385)" fill="#9e9d9d"/>
  <path id="Path_325" data-name="Path 325" d="M33.994,64.455q0-7.908,3.748-12.7a11.838,11.838,0,0,1,9.814-4.828,11.916,11.916,0,0,1,9.56,4.129V33.14h5.875V81.923h-5.4l-.286-3.684a11.964,11.964,0,0,1-9.814,4.319,11.779,11.779,0,0,1-9.75-4.891Q33.995,72.776,33.994,64.9Zm5.876.667q0,5.844,2.414,9.147a7.8,7.8,0,0,0,6.669,3.3,8.571,8.571,0,0,0,8.163-5.018V56.769a8.637,8.637,0,0,0-8.1-4.859,7.841,7.841,0,0,0-6.733,3.334Q39.87,58.58,39.87,65.122Z" transform="translate(217.94 212.461)" fill="#9e9d9d"/>
  <path id="Path_326" data-name="Path 326" d="M71.815,65.122q0,7.876-3.62,12.672a11.581,11.581,0,0,1-9.719,4.764q-6.511,0-10.068-4.605l-.285,3.97h-5.4V33.14H48.6v18.2a11.912,11.912,0,0,1,9.814-4.415,11.6,11.6,0,0,1,9.814,4.733q3.588,4.732,3.588,12.958Zm-5.876-.667q0-6-2.318-9.273a7.676,7.676,0,0,0-6.67-3.271,8.627,8.627,0,0,0-8.353,5.4V72.173q2.7,5.4,8.417,5.4A7.632,7.632,0,0,0,63.589,74.3Q65.939,71.029,65.939,64.455Z" transform="translate(273.897 212.461)" fill="#9e9d9d"/>
  <path id="Path_327" data-name="Path 327" d="M62.787,60.842l8-25.757h6.288L63.263,74.753q-3.208,8.575-10.2,8.575l-1.112-.1-2.191-.413V78.056l1.588.127a7.748,7.748,0,0,0,4.637-1.207,8.674,8.674,0,0,0,2.763-4.415l1.3-3.494L47.8,35.085h6.416Z" transform="translate(306.422 224.935)" fill="#9e9d9d"/>
  <g id="Group_117" data-name="Group 117" transform="translate(408.217 223.852)" clip-path="url(#clip-path)">
    <path id="Path_328" data-name="Path 328" d="M118.525,41.462H99.5v9.651h19.1a4.359,4.359,0,0,0,3.11-.767,3.188,3.188,0,0,0,.808-2.18V44.127a3.111,3.111,0,0,0-.808-2.181,4.358,4.358,0,0,0-3.11-.767ZM90.984,71.749V35.162h31.459a9.45,9.45,0,0,1,6.3,1.776,6.948,6.948,0,0,1,1.939,5.291v8.077a6.948,6.948,0,0,1-1.939,5.29,9.687,9.687,0,0,1-6.3,1.776H99.5V71.548Z" transform="translate(175.091 1.387)" fill="#999" fill-rule="evenodd"/>
    <path id="Path_329" data-name="Path 329" d="M125.64,41.468H106.417V51.685h19.1a5.907,5.907,0,0,0,3.15-.605,3.4,3.4,0,0,0,.763-2.343V44.416a3.337,3.337,0,0,0-.763-2.181,4.577,4.577,0,0,0-3.15-.767ZM98.1,71.756V35.169h31.255a9.71,9.71,0,0,1,6.507,1.776,6.945,6.945,0,0,1,1.549,2.435,7.066,7.066,0,0,1,.43,2.855v8.642a6.717,6.717,0,0,1-.393,2.887,6.824,6.824,0,0,1-1.586,2.443,9.951,9.951,0,0,1-6.507,1.777h-4.721l16.919,13.771H129.434L114.493,57.985h-8.077V71.756Z" transform="translate(220.695 1.375)" fill="#999" fill-rule="evenodd"/>
    <path id="Path_330" data-name="Path 330" d="M105.766,71.724V35.137h37.552v6.3H114.407v8.036h16.919v6.3H114.407v9.046h29.318v6.906Z" transform="translate(269.857 1.412)" fill="#999" fill-rule="evenodd"/>
    <path id="Path_331" data-name="Path 331" d="M145.8,41.508H121.818v7.834h22.774a11.047,11.047,0,0,1,7.307,1.777,9.073,9.073,0,0,1,1.942,6.906v5.048a9.073,9.073,0,0,1-1.942,6.906,11.051,11.051,0,0,1-7.307,1.777H121.981a11.306,11.306,0,0,1-7.27-1.777,10.016,10.016,0,0,1-1.816-6.906V62.1l7.507-1.575v4.16h25.724V56.612H123.307a9.244,9.244,0,0,1-7.063-1.979,8.487,8.487,0,0,1-1.979-6.7V43.89a8.394,8.394,0,0,1,1.979-6.663,9.073,9.073,0,0,1,7.063-1.979h20.884a10.052,10.052,0,0,1,7.063,1.777,8.1,8.1,0,0,1,2.023,5.855v.808L145.8,45.465V41.508Z" transform="translate(315.184 1.537)" fill="#999" fill-rule="evenodd"/>
    <path id="Path_332" data-name="Path 332" d="M153.511,41.494h-23.99v7.834H152.34a11.23,11.23,0,0,1,7.27,1.777,9.837,9.837,0,0,1,1.771,6.906v5.048a9.836,9.836,0,0,1-1.771,6.906,11.23,11.23,0,0,1-7.27,1.777H129.722a10.845,10.845,0,0,1-7.263-1.777,9.041,9.041,0,0,1-1.979-6.906v-.969l7.47-1.575v4.16h25.961V56.6H131.1a10.089,10.089,0,0,1-7.27-1.979,9.426,9.426,0,0,1-1.779-6.7V43.876a9.319,9.319,0,0,1,1.779-6.663,9.931,9.931,0,0,1,7.27-1.979h20.833a10.818,10.818,0,0,1,7.107,1.777,8.042,8.042,0,0,1,1.942,6.259v.808l-7.47,1.776V41.494Z" transform="translate(363.693 1.556)" fill="#999" fill-rule="evenodd"/>
    <path id="Path_333" data-name="Path 333" d="M83.931,71.724l17.325-18.7L83.527,35.137H94.956l11.59,12.4,11.226-12.4h9.611l-15.911,16.88,19.868,19.708h-11.63L106.345,57.549l-12.4,14.175Z" transform="translate(127.283 1.412)" fill="#999" fill-rule="evenodd"/>
    <path id="Path_334" data-name="Path 334" d="M76.324,71.724,55.082,35.137h9.854l14.74,26.532L93.81,35.137h8.48L82.22,71.724Z" transform="translate(-55.082 1.412)" fill="#999" fill-rule="evenodd"/>
    <path id="Path_335" data-name="Path 335" d="M62.3,71.724V35.137h5.694L93.6,56.742c.969.807,1.777,1.413,2.342,1.979A18.2,18.2,0,0,1,97.918,60.7c-.2-1.979-.4-3.554-.4-4.321V35.137h7.673V71.724H99.453L72.518,49.069a11.413,11.413,0,0,1-1.575-1.534,4.934,4.934,0,0,1-1.373-1.373,18.305,18.305,0,0,1,0,3.311,12.144,12.144,0,0,1,.2,2.585V71.724Z" transform="translate(-8.802 1.412)" fill="#999" fill-rule="evenodd"/>
    <path id="Path_336" data-name="Path 336" d="M160.778,30.205H75.448a6.057,6.057,0,0,0-6.058,6.057v97.526a6.056,6.056,0,0,0,6.058,6.057h85.33a6.056,6.056,0,0,0,6.058-6.057V36.262a6.058,6.058,0,0,0-6.058-6.057Zm-2.787,94.739a6.056,6.056,0,0,1-6.057,6.219H84.494a6.058,6.058,0,0,1-6.058-6.058v-80a6.058,6.058,0,0,1,6.058-6.058h66.673a6.058,6.058,0,0,1,6.017,6.058V58.676a6.058,6.058,0,0,1-6.058,6.057H109.047v4.6h18.7a6.058,6.058,0,0,1,6.058,6.058V92.113a6.06,6.06,0,0,1-1.777,4.281A6.581,6.581,0,0,1,127.7,98.17H109.047V103.9h42.887a6.058,6.058,0,0,1,6.057,6.058Z" transform="translate(36.652 -30.205)" fill="#9f224e"/>
    <path id="Path_337" data-name="Path 337" d="M144.109,96.093H101.222V90.359h18.657a6.588,6.588,0,0,0,4.321-1.777,6.058,6.058,0,0,0,1.776-4.281V67.744a6.058,6.058,0,0,0-6.057-6.058h-18.7v-4.6h42.12a6.058,6.058,0,0,0,6.017-6.057V37.456A6.057,6.057,0,0,0,143.3,31.4H76.669a6.057,6.057,0,0,0-6.057,6.058v79.838a6.056,6.056,0,0,0,6.057,6.219h67.44a6.058,6.058,0,0,0,6.058-6.057V102.15a6.058,6.058,0,0,0-6.058-6.058Zm0,21.2H76.669V37.456h66.673V51.025H95.164V67.744H119.92V84.462l-24.755-.2v17.89h48.944Z" transform="translate(44.465 -22.555)" fill="#fff"/>
    <path id="Path_338" data-name="Path 338" d="M90.1,79.02l24.755.2V62.5H90.1V45.785h48.177V32.216H71.4v79.838h67.642V96.91H90.1Z" transform="translate(49.549 -17.314)" fill="#9f224e"/>
  </g>
</svg>
